<svg xmlns="http://www.w3.org/2000/svg" width="239" height="171" fill="none"><rect width="237" height="169" x="1" y="1" stroke="#D9D9D9" stroke-width="2" rx="4"/><g fill="#484848" opacity=".1"><path d="M107.685 82.875a3.937 3.937 0 1 0-.001-7.875 3.937 3.937 0 0 0 .001 7.875ZM115.56 90.75l-3.938-5.25-7.875 10.5h31.5l-11.812-15.75-7.875 10.5Z"/><path d="M140.497 64.5h-42a5.255 5.255 0 0 0-5.25 5.25v31.5a5.256 5.256 0 0 0 5.25 5.25h42a5.256 5.256 0 0 0 5.25-5.25v-31.5a5.256 5.256 0 0 0-5.25-5.25Zm-42 36.75v-31.5h42l.005 31.5H98.497Z"/></g></svg>